<?xml version="1.0" encoding="UTF-8" standalone="no"?>
<!-- Created with Inkscape (http://www.inkscape.org/) -->

<svg
   width="235.98935mm"
   height="43.65625mm"
   viewBox="0 0 235.98935 43.65625"
   version="1.1"
   id="svg5"
   inkscape:version="1.1.2 (0a00cf5339, 2022-02-04, custom)"
   sodipodi:docname="opni-monitoring-logo-light.svg"
   inkscape:export-filename="/home/joe/Pictures/opni-monitoring-logo.png"
   inkscape:export-xdpi="96"
   inkscape:export-ydpi="96"
   xmlns:inkscape="http://www.inkscape.org/namespaces/inkscape"
   xmlns:sodipodi="http://sodipodi.sourceforge.net/DTD/sodipodi-0.dtd"
   xmlns="http://www.w3.org/2000/svg"
   xmlns:svg="http://www.w3.org/2000/svg">
  <sodipodi:namedview
     id="namedview7"
     pagecolor="#ffffff"
     bordercolor="#666666"
     borderopacity="1.0"
     inkscape:pageshadow="2"
     inkscape:pageopacity="0.0"
     inkscape:pagecheckerboard="0"
     inkscape:document-units="mm"
     showgrid="false"
     showguides="false"
     gridtolerance="10000"
     objecttolerance="10000"
     inkscape:snap-path-clip="false"
     inkscape:snap-path-mask="false"
     guidetolerance="20"
     inkscape:guide-bbox="true"
     inkscape:zoom="1.4142136"
     inkscape:cx="517.60215"
     inkscape:cy="30.759144"
     inkscape:window-width="2507"
     inkscape:window-height="1411"
     inkscape:window-x="1973"
     inkscape:window-y="29"
     inkscape:window-maximized="1"
     inkscape:current-layer="g6210">
    <inkscape:grid
       type="xygrid"
       id="grid444"
       units="mm"
       spacingx="1.83"
       spacingy="1.83"
       originx="-30.427084"
       originy="-56.885416" />
    <sodipodi:guide
       position="47.625017,43.651662"
       inkscape:color="rgb(167,0,255)"
       inkscape:label=""
       orientation="-0,1"
       id="guide4680" />
    <sodipodi:guide
       position="47.625017,0.0016614999"
       inkscape:color="rgb(167,0,255)"
       inkscape:label="End"
       orientation="-0,1"
       id="guide4684" />
    <sodipodi:guide
       position="47.625017,0.0016614999"
       inkscape:color="rgb(167,0,255)"
       inkscape:label="Crossing 1"
       orientation="-0,-1"
       id="guide4688" />
    <sodipodi:guide
       position="60.85417,50.270762"
       orientation="1,0"
       id="guide5731" />
    <sodipodi:guide
       position="74.975608,65.402062"
       orientation="0,-1"
       id="guide5733" />
    <sodipodi:guide
       position="74.275348,28.160262"
       orientation="0,-1"
       id="guide5735" />
    <sodipodi:guide
       position="74.275348,14.766262"
       orientation="0,-1"
       id="guide5737" />
    <sodipodi:guide
       position="52.91667,55.562462"
       orientation="1,0"
       id="guide5741" />
    <sodipodi:guide
       position="106.10988,76.454562"
       orientation="1,0"
       id="guide5743" />
  </sodipodi:namedview>
  <defs
     id="defs2">
    <style
       type="text/css"
       id="style1092">
	.st0{fill:#A453B9;}
	.st1{fill:#FFFFFF;}
	.st2{fill:#344845;}
	.st3{fill:#D13306;}
	.st4{fill:#004D93;}
	.st5{fill:#0081BE;}
	.st6{fill:#1167F1;}
	.st7{fill:#FFC400;}
	.st8{fill:#FF7A3D;}
	.st9{fill:#00A580;}
	.st10{fill:#53C3D0;}
	.st11{fill:#671C4C;}
	.st12{fill:#00E3C2;}
	.st13{fill:#BC2A46;}
	.st14{fill:#FF192E;}
	.st15{fill:#00B056;}
</style>
  </defs>
  <g
     inkscape:label="Layer 1"
     inkscape:groupmode="layer"
     id="layer1"
     transform="translate(-30.427083,-56.885416)">
    <style
       type="text/css"
       id="style9">
	.st0{fill:#A453B9;}
	.st1{fill:#FFFFFF;}
	.st2{fill:#344845;}
	.st3{fill:#D13306;}
	.st4{fill:#004D93;}
	.st5{fill:#0081BE;}
	.st6{fill:#1167F1;}
	.st7{fill:#FFC400;}
	.st8{fill:#FF7A3D;}
	.st9{fill:#00A580;}
	.st10{fill:#53C3D0;}
	.st11{fill:#671C4C;}
	.st12{fill:#00E3C2;}
	.st13{fill:#BC2A46;}
	.st14{fill:#FF192E;}
	.st15{fill:#00B056;}
</style>
    <g
       id="g838"
       transform="translate(21.738209,1.3576042)"
       style="stroke-width:1;stroke-miterlimit:4;stroke-dasharray:none">
      <g
         id="g35"
         transform="matrix(0.26458333,0,0,0.26458333,7.9723685,56.611375)"
         style="stroke-width:3.77952761;stroke-miterlimit:4;stroke-dasharray:none" />
      <g
         id="g694"
         transform="translate(0.24780241,-0.57965157)"
         style="stroke-width:1;stroke-miterlimit:4;stroke-dasharray:none" />
      <g
         id="g6210"
         style="stroke-width:1;stroke-miterlimit:4;stroke-dasharray:none">
        <g
           id="g23"
           transform="matrix(0.26458333,0,0,0.26458333,8.6888743,55.527812)"
           style="stroke-width:3.77952761;stroke-miterlimit:4;stroke-dasharray:none">
          <path
             class="st0"
             d="M 180,165 H 20 C 9,165 0,156 0,145 V 20 C 0,9 9,0 20,0 h 160 c 11,0 20,9 20,20 v 125 c 0,11 -9,20 -20,20 z"
             id="path11"
             style="stroke-width:3.77952761;stroke-miterlimit:4;stroke-dasharray:none" />
          <g
             id="g21"
             style="stroke-width:3.77952761;stroke-miterlimit:4;stroke-dasharray:none">
            <path
               class="st1"
               d="m 171.77148,50.336914 c 0,-4.142578 -3.35742,-7.5 -7.5,-7.5 -4.14257,0 -7.5,3.357422 -7.5,7.5 v 2.758545 C 144.69751,43.200195 125.02417,31.361328 100,31.361328 c -42.074219,0 -69.027344,33.46875 -70.154297,34.893555 -2.56543,3.24414 -2.015625,7.945312 1.222656,10.518554 3.239258,2.57129 7.955078,2.03125 10.532227,-1.201171 C 41.833984,75.280273 65.314453,46.361328 100,46.361328 c 19.37988,0 35.25806,9.027344 45.5415,17.045898 h -1.84033 c -4.14258,0 -7.5,3.357422 -7.5,7.500001 0,4.142578 3.35742,7.5 7.5,7.5 h 20.57031 c 9.8e-4,0 0.002,0 0.002,0 9.7e-4,0 0.002,0 0.002,0 0.003,0 0.005,-7.33e-4 0.008,-7.33e-4 0.36963,-4.88e-4 0.72998,-0.03638 1.0852,-0.08862 0.073,-0.01074 0.14527,-0.02026 0.21827,-0.0332 0.35693,-0.06323 0.70483,-0.149658 1.04248,-0.261475 0.0562,-0.01855 0.11059,-0.04102 0.1665,-0.06104 0.74561,-0.266846 1.43579,-0.646728 2.05103,-1.121826 0.0244,-0.0188 0.0517,-0.03101 0.0762,-0.05029 0.0181,-0.0144 0.0337,-0.03076 0.0518,-0.04541 0.11425,-0.09204 0.22216,-0.191162 0.33081,-0.289795 0.0781,-0.0708 0.15918,-0.138916 0.23364,-0.212402 0.0855,-0.08423 0.16406,-0.175049 0.24536,-0.263428 0.0872,-0.09424 0.17725,-0.186523 0.25855,-0.284424 0.0569,-0.06836 0.10693,-0.141846 0.16137,-0.212158 0.095,-0.123047 0.1919,-0.244629 0.27832,-0.372315 0.0435,-0.06396 0.0801,-0.132568 0.12158,-0.197753 0.0872,-0.13794 0.17603,-0.274903 0.25342,-0.417237 0.0581,-0.106445 0.10669,-0.21875 0.15967,-0.328125 0.051,-0.105957 0.10718,-0.209961 0.15308,-0.317871 0.0647,-0.151611 0.11816,-0.308838 0.17285,-0.465332 0.0247,-0.07056 0.0547,-0.139404 0.0771,-0.210693 0.0471,-0.14917 0.0832,-0.303223 0.12109,-0.456543 0.021,-0.08374 0.0466,-0.166016 0.0644,-0.250244 0.0269,-0.126465 0.0435,-0.256348 0.0637,-0.385254 0.0186,-0.116699 0.0405,-0.23291 0.0535,-0.350342 0.0115,-0.104492 0.0146,-0.211426 0.022,-0.317383 0.01,-0.145752 0.0205,-0.291015 0.022,-0.437256 0,-0.02319 0.003,-0.04565 0.003,-0.06885 V 50.336914 Z"
               id="path13"
               style="stroke-width:3.77952761;stroke-miterlimit:4;stroke-dasharray:none" />
            <path
               class="st1"
               d="m 168.93164,88.226562 c -3.23926,-2.570312 -7.9541,-2.03125 -10.53223,1.201172 -0.23339,0.291993 -23.71386,29.210936 -58.39941,29.210936 -19.379883,0 -35.258057,-9.02734 -45.541504,-17.0459 h 1.840332 c 4.142578,0 7.5,-3.357418 7.5,-7.499996 0,-4.142579 -3.357422,-7.5 -7.5,-7.5 H 35.728516 c -0.08936,0 -0.176026,0.01025 -0.264649,0.01343 -0.134765,0.0046 -0.269043,0.0085 -0.403808,0.02026 -0.119873,0.01074 -0.237549,0.02808 -0.355713,0.04419 -0.124268,0.01709 -0.248291,0.03345 -0.371826,0.05688 -0.12378,0.02319 -0.245118,0.05274 -0.3667,0.08203 -0.115478,0.02783 -0.230713,0.05542 -0.345214,0.08887 -0.124756,0.03662 -0.246582,0.07886 -0.368653,0.121582 -0.107666,0.0376 -0.215332,0.07495 -0.321777,0.117675 -0.125244,0.05029 -0.246826,0.10669 -0.368408,0.163575 -0.09936,0.04639 -0.198975,0.0918 -0.296631,0.142822 -0.125977,0.06567 -0.247803,0.137695 -0.369629,0.210449 -0.08887,0.05298 -0.178223,0.104248 -0.265625,0.161377 -0.126709,0.08301 -0.248047,0.172608 -0.369385,0.26294 -0.06079,0.04517 -0.124512,0.08374 -0.184326,0.131103 -0.01807,0.0144 -0.03369,0.03076 -0.05176,0.04541 -0.114258,0.09204 -0.222168,0.191162 -0.33081,0.289795 -0.07813,0.0708 -0.15918,0.138916 -0.233643,0.212403 -0.08545,0.08423 -0.164062,0.175048 -0.245361,0.263427 -0.08716,0.09424 -0.177246,0.186524 -0.258545,0.284424 -0.05688,0.06836 -0.106934,0.141846 -0.161377,0.212158 -0.09497,0.123047 -0.191895,0.244629 -0.27832,0.372315 -0.04297,0.06323 -0.07935,0.131103 -0.120362,0.195801 -0.08765,0.138671 -0.177002,0.276367 -0.254883,0.419433 -0.05811,0.10669 -0.106689,0.218994 -0.159668,0.328613 -0.05102,0.105713 -0.106933,0.209229 -0.152832,0.316895 -0.0647,0.151855 -0.118164,0.309326 -0.173095,0.466309 -0.02466,0.07031 -0.05444,0.138916 -0.07691,0.20996 -0.04712,0.149415 -0.08325,0.303223 -0.121093,0.456543 -0.021,0.08374 -0.04663,0.166016 -0.06445,0.250245 -0.02686,0.126464 -0.04346,0.256347 -0.06372,0.385253 -0.01856,0.1167 -0.04053,0.232911 -0.05347,0.350342 -0.01148,0.104492 -0.01465,0.211426 -0.02197,0.317383 -0.0098,0.145752 -0.02051,0.291016 -0.02197,0.437256 0,0.02319 -0.0034,0.04565 -0.0034,0.06885 v 20.570318 c 0,4.14257 3.357422,7.5 7.5,7.5 4.142578,0 7.5,-3.35743 7.5,-7.5 v -2.75855 C 55.30249,121.7998 74.97583,133.63867 100,133.63867 c 42.07422,0 69.02734,-33.46875 70.1543,-34.893553 2.56543,-3.24414 2.01562,-7.945312 -1.22266,-10.518555 z"
               id="path15"
               style="stroke-width:3.77952761;stroke-miterlimit:4;stroke-dasharray:none" />
            <path
               class="st1"
               d="m 74.6521,82.503418 c 0,12.045898 8.520263,22.099852 19.862548,24.469242 L 97.989502,87.474609 H 86.643799 L 104.67261,58.008301 c -1.62183,-0.330567 -3.30078,-0.504883 -5.02051,-0.504883 -13.807129,0 -25,11.192871 -25,25 z"
               id="path17"
               style="stroke-width:3.77952761;stroke-miterlimit:4;stroke-dasharray:none" />
            <path
               class="st1"
               d="m 99.6521,107.50342 c 13.80713,0 25,-11.192873 25,-25.000002 0,-12.047852 -8.52319,-22.103027 -19.86816,-24.470459 l -3.469,19.465332 H 112.6604 L 94.612793,106.99536 c 1.627685,0.33325 3.312988,0.50806 5.039307,0.50806 z"
               id="path19"
               style="stroke-width:3.77952761;stroke-miterlimit:4;stroke-dasharray:none" />
          </g>
        </g>
        <path
           class="st2"
           d="m 69.013877,76.929088 c 0,-4.82167 2.559791,-6.746359 6.151304,-6.746359 3.532089,0 6.09188,1.924689 6.09188,6.746359 0,5.357812 -2.639116,7.123855 -6.09188,7.123855 -3.591513,0 -6.151304,-1.924947 -6.151304,-7.123855 z m 8.849853,0 c 0,-3.333389 -1.309482,-4.404899 -2.73834,-4.404899 -1.428594,0 -2.718438,1.07151 -2.718438,4.404899 0,3.710626 1.289844,4.782395 2.718438,4.782395 1.428858,0 2.73834,-1.07177 2.73834,-4.782395 z"
           id="path25"
           style="stroke-width:0.4;stroke-miterlimit:4;stroke-dasharray:none;fill:#ffffff;fill-opacity:1;stroke:#444c56;stroke-opacity:1" />
        <path
           class="st2"
           d="m 138.40823,76.929086 c 0,-4.821669 2.55979,-6.746358 6.1513,-6.746358 3.53209,0 6.09188,1.924689 6.09188,6.746358 0,5.357813 -2.63911,7.123857 -6.09188,7.123857 -3.59151,0 -6.1513,-1.924947 -6.1513,-7.123857 z m 8.84985,0 c 0,-3.333388 -1.30948,-4.404899 -2.73834,-4.404899 -1.42859,0 -2.71844,1.071511 -2.71844,4.404899 0,3.710627 1.28985,4.782396 2.71844,4.782396 1.42886,0 2.73834,-1.071769 2.73834,-4.782396 z"
           id="path25-6"
           style="fill:#ffffff;stroke-width:0.4;stroke-miterlimit:4;stroke-dasharray:none;fill-opacity:1;stroke:#444c56;stroke-opacity:1" />
        <path
           class="st2"
           d="m 83.036791,70.420828 h 5.615421 c 2.639116,0 4.544166,1.329634 4.544166,4.008283 0,2.916876 -1.845622,4.603595 -4.544166,4.603595 h -2.301668 v 4.782138 h -3.313753 z m 3.313753,2.401145 v 3.809845 h 1.547709 c 1.031719,0 1.964478,-0.55578 1.964478,-2.004271 0,-1.369167 -0.932759,-1.805574 -1.964478,-1.805574 z"
           id="path27"
           style="stroke-width:0.4;stroke-miterlimit:4;stroke-dasharray:none;fill:#ffffff;fill-opacity:1;stroke:#444c56;stroke-opacity:1" />
        <path
           class="st2"
           d="m 94.791369,70.420828 h 3.551722 l 3.512199,6.647397 c 0.29765,0.575417 0.69454,1.587501 1.01209,2.38125 h 0.0793 c -0.0395,-0.754217 -0.13875,-1.825728 -0.13875,-2.599583 v -6.429064 h 2.71844 V 83.814844 H 102.0537 L 98.402778,77.18734 c -0.337446,-0.595313 -0.694531,-1.468386 -0.972293,-2.182812 h -0.07958 c 0.05969,0.753959 0.158906,1.646928 0.158906,2.38125 v 6.429066 H 94.79137 Z"
           id="path29"
           style="stroke-width:0.4;stroke-miterlimit:4;stroke-dasharray:none;fill:#ffffff;fill-opacity:1;stroke:#444c56;stroke-opacity:1" />
        <path
           class="st2"
           d="m 107.88153,70.420828 h 6.90526 v 2.34146 h -1.80557 v 8.711096 h 1.80557 v 2.34146 h -6.90526 v -2.34146 h 1.78568 v -8.711096 h -1.78568 z"
           id="path31"
           style="stroke-width:0.4;stroke-miterlimit:4;stroke-dasharray:none;fill:#ffffff;fill-opacity:1;stroke:#444c56;stroke-opacity:1" />
        <path
           class="st2"
           d="m 152.4247,70.420828 h 3.55172 l 3.51219,6.647397 c 0.29765,0.575416 0.69453,1.587501 1.01208,2.38125 h 0.0793 c -0.0395,-0.754218 -0.13875,-1.825729 -0.13875,-2.599584 v -6.429064 h 2.71844 v 13.394015 h -3.47265 l -3.65094,-6.627501 c -0.33745,-0.595314 -0.69454,-1.468386 -0.9723,-2.182813 h -0.0796 c 0.0597,0.753959 0.15891,1.646928 0.15891,2.38125 v 6.429066 h -2.71844 z"
           id="path29-7"
           style="fill:#ffffff;stroke-width:0.4;stroke-miterlimit:4;stroke-dasharray:none;fill-opacity:1;stroke:#444c56;stroke-opacity:1" />
        <path
           class="st2"
           d="m 220.52884,70.420828 h 3.55172 l 3.51219,6.647397 c 0.29766,0.575418 0.69454,1.587499 1.01209,2.381249 h 0.0793 c -0.0395,-0.754215 -0.13875,-1.825728 -0.13875,-2.599582 v -6.429064 h 2.71844 v 13.394015 h -3.47266 l -3.65094,-6.627504 c -0.33745,-0.595312 -0.69453,-1.468386 -0.97229,-2.182812 h -0.0796 c 0.0597,0.753959 0.1589,1.646927 0.1589,2.38125 v 6.429066 h -2.71844 z"
           id="path29-7-9"
           style="fill:#ffffff;stroke-width:0.4;stroke-miterlimit:4;stroke-dasharray:none;fill-opacity:1;stroke:#444c56;stroke-opacity:1" />
        <path
           class="st2"
           d="m 165.26187,70.420828 h 6.90526 v 2.341459 h -1.80557 v 8.711095 h 1.80557 v 2.341461 h -6.90526 v -2.341462 h 1.78568 v -8.711094 h -1.78568 z"
           id="path31-5"
           style="fill:#ffffff;stroke-width:0.4;stroke-miterlimit:4;stroke-dasharray:none;fill-opacity:1;stroke:#444c56;stroke-opacity:1" />
        <path
           class="st2"
           d="m 184.88921,76.929086 c 0,-4.82167 2.55979,-6.746359 6.1513,-6.746359 3.53209,0 6.09188,1.924689 6.09188,6.746359 0,5.357814 -2.63912,7.123858 -6.09188,7.123858 -3.59151,0 -6.1513,-1.924947 -6.1513,-7.123858 z m 8.84985,0 c 0,-3.333389 -1.30948,-4.404899 -2.73834,-4.404899 -1.4286,0 -2.71844,1.07151 -2.71844,4.404899 0,3.710626 1.28984,4.782396 2.71844,4.782396 1.42886,0 2.73834,-1.07177 2.73834,-4.782396 z"
           id="path25-6-5"
           style="fill:#ffffff;stroke-width:0.4;stroke-miterlimit:4;stroke-dasharray:none;fill-opacity:1;stroke:#444c56;stroke-opacity:1" />
        <path
           class="st2"
           d="m 211.718,70.420828 h 6.90526 v 2.341459 h -1.80557 v 8.711095 h 1.80557 v 2.341461 H 211.718 v -2.341462 h 1.78568 V 72.762286 H 211.718 Z"
           id="path31-5-2"
           style="fill:#ffffff;stroke-width:0.4;stroke-miterlimit:4;stroke-dasharray:none;fill-opacity:1;stroke:#444c56;stroke-opacity:1" />
        <path
           class="st2"
           d="m 199.03793,70.391116 h 5.5162 c 2.61922,0 4.38526,1.269947 4.38526,3.730521 0,2.004013 -1.36917,3.214532 -2.69854,3.631303 0.39687,0.337188 0.69453,0.79375 0.9325,1.269947 0.55578,1.130941 0.93276,2.380993 2.10349,2.380993 0.29765,0 0.53562,-0.09922 0.53562,-0.09922 l -0.25786,2.361355 c 0,0 -0.71443,0.17854 -1.32938,0.17854 -1.5875,0 -2.50036,-0.614947 -3.43286,-2.738332 -0.39688,-0.952396 -0.95266,-2.619221 -1.68672,-2.619221 h -0.75396 v 5.298128 h -3.31375 z m 3.31375,2.401144 v 3.293856 h 1.19036 c 0.95266,0 2.0637,-0.297657 2.0637,-1.72651 0,-1.170728 -0.75396,-1.567346 -1.66682,-1.567346 z"
           id="path80-6"
           style="fill:#ffffff;stroke-width:0.4;stroke-miterlimit:4;stroke-dasharray:none;fill-opacity:1;stroke:#444c56;stroke-opacity:1" />
        <path
           class="st2"
           d="m 123.08231,70.65893 h 4.1075 l 2.18255,5.972763 c 0.33745,0.952399 0.57542,1.92469 0.57542,1.92469 h 0.0796 c 0,0 0.23797,-1.011826 0.57542,-1.92469 l 2.12313,-5.972763 h 3.90906 v 13.394014 h -3.09542 v -6.766509 c 0,-0.793751 0.21807,-2.659014 0.21807,-2.659014 h -0.0793 c 0,0 -0.39687,1.88516 -0.65474,2.559793 l -2.57969,6.86573 h -1.48828 l -2.59932,-6.86573 c -0.27776,-0.714169 -0.61521,-2.440679 -0.61521,-2.440679 h -0.0793 c 0,0 0.13901,1.746147 0.13901,2.539897 v 6.76651 h -2.71844 z"
           id="path68-3"
           style="fill:#ffffff;stroke-width:0.4;stroke-miterlimit:4;stroke-dasharray:none;fill-opacity:1;stroke:#444c56;stroke-opacity:1" />
        <path
           class="st2"
           d="m 239.16177,77.048201 h 5.51646 v 6.766513 h -2.24224 v -2.262137 c -0.4762,1.488281 -1.54771,2.500365 -3.84964,2.500365 -3.09542,0 -5.41698,-2.143022 -5.41698,-7.00474 0,-4.861462 2.34146,-6.865473 5.9924,-6.865473 4.1075,0 5.71489,2.321564 5.25859,4.682919 l -3.11557,0.337188 c 0.23823,-1.845365 -0.67464,-2.678647 -1.98412,-2.678647 -1.44849,0 -2.71843,1.051615 -2.71843,4.583699 0,3.531825 1.09114,4.524012 2.69854,4.524012 1.48828,0 2.32156,-0.912605 2.36135,-1.825469 v -0.37698 h -2.50036 z"
           id="path1106-2"
           style="fill:#ffffff;stroke-width:0.4;stroke-miterlimit:4;stroke-dasharray:none;fill-opacity:1;stroke:#444c56;stroke-opacity:1" />
        <path
           class="st2"
           d="m 173.61143,70.420828 h 10.69521 V 72.8814 h -3.73026 v 10.933443 h -3.31375 V 72.8814 h -3.6512 z"
           id="path126-3"
           style="fill:#ffffff;stroke-width:0.4;stroke-miterlimit:4;stroke-dasharray:none;fill-opacity:1;stroke:#444c56;stroke-opacity:1" />
      </g>
      <style
         type="text/css"
         id="style4850">
	.st0{fill:#A453B9;}
	.st1{fill:#FFFFFF;}
	.st2{fill:#344845;}
	.st3{fill:#D13306;}
	.st4{fill:#004D93;}
	.st5{fill:#0081BE;}
	.st6{fill:#1167F1;}
	.st7{fill:#FFC400;}
	.st8{fill:#FF7A3D;}
	.st9{fill:#00A580;}
	.st10{fill:#53C3D0;}
	.st11{fill:#671C4C;}
	.st12{fill:#00E3C2;}
	.st13{fill:#BC2A46;}
	.st14{fill:#FF192E;}
	.st15{fill:#00B056;}
</style>
      <style
         type="text/css"
         id="style4999">
	.st0{fill:#A453B9;}
	.st1{fill:#FFFFFF;}
	.st2{fill:#344845;}
	.st3{fill:#D13306;}
	.st4{fill:#004D93;}
	.st5{fill:#0081BE;}
	.st6{fill:#1167F1;}
	.st7{fill:#FFC400;}
	.st8{fill:#FF7A3D;}
	.st9{fill:#00A580;}
	.st10{fill:#53C3D0;}
	.st11{fill:#671C4C;}
	.st12{fill:#00E3C2;}
	.st13{fill:#BC2A46;}
	.st14{fill:#FF192E;}
	.st15{fill:#00B056;}
</style>
    </g>
    <style
       type="text/css"
       id="style56">
	.st0{fill:#A453B9;}
	.st1{fill:#FFFFFF;}
	.st2{fill:#344845;}
	.st3{fill:#D13306;}
	.st4{fill:#004D93;}
	.st5{fill:#0081BE;}
	.st6{fill:#1167F1;}
	.st7{fill:#FFC400;}
	.st8{fill:#FF7A3D;}
	.st9{fill:#00A580;}
	.st10{fill:#53C3D0;}
	.st11{fill:#671C4C;}
	.st12{fill:#00E3C2;}
	.st13{fill:#BC2A46;}
	.st14{fill:#FF192E;}
	.st15{fill:#00B056;}
</style>
    <style
       type="text/css"
       id="style106">
	.st0{fill:#A453B9;}
	.st1{fill:#FFFFFF;}
	.st2{fill:#344845;}
	.st3{fill:#D13306;}
	.st4{fill:#004D93;}
	.st5{fill:#0081BE;}
	.st6{fill:#1167F1;}
	.st7{fill:#FFC400;}
	.st8{fill:#FF7A3D;}
	.st9{fill:#00A580;}
	.st10{fill:#53C3D0;}
	.st11{fill:#671C4C;}
	.st12{fill:#00E3C2;}
	.st13{fill:#BC2A46;}
	.st14{fill:#FF192E;}
	.st15{fill:#00B056;}
</style>
  </g>
</svg>
