<svg version="1.2" xmlns="http://www.w3.org/2000/svg" viewBox="0 0 54 44" width="54" height="44">
	<title>opni-svg</title>
	<style>
		.s1 {
			fill: #a453b9
		}
	</style>
	<g id="layer1">
		<g id="g838">
			<g id="g35">
			</g>
			<g id="g694">
			</g>
			<g id="g6210">
				<g id="g23">
					<g id="g21">
						<path id="path13" class="s1"
							d="m45.4 18.8q0 0 0 0 0 0 0 0.1 0 0 0 0.1 0 0 0 0.1 0 0 0 0.1 0 0 0 0 0 0.1 0 0.2-0.1 0-0.1 0 0 0.1 0 0.1 0 0.1-0.1 0.1 0 0.1 0 0.1 0 0.1-0.1 0.1 0 0 0 0.1 0 0-0.1 0.1 0 0 0 0 0 0.1-0.1 0.1 0 0 0 0.1-0.1 0-0.1 0 0 0.1-0.1 0.1 0 0 0 0 0 0 0 0-0.3 0.2-0.6 0.3 0 0 0 0-0.1 0.1-0.3 0.1 0 0 0 0-0.2 0-0.3 0 0 0 0 0 0 0 0 0 0 0 0 0h-5.5c-1.1 0-2-0.8-2-1.9 0-1.1 0.9-2 2-2h0.5c-2.7-2.1-6.9-4.5-12-4.5-9.2 0-15.4 7.6-15.5 7.7-0.7 0.9-1.9 1-2.8 0.3-0.8-0.7-1-1.9-0.3-2.8 0.3-0.3 7.4-9.2 18.6-9.2 6.6 0 11.8 3.1 15 5.7v-0.7c0-1.1 0.9-2 2-2 1.1 0 1.9 0.9 1.9 2 0 0 0 5.5 0 5.5z" />
						<path id="path15" class="s1"
							d="m45 26.1c-0.3 0.4-7.4 9.3-18.5 9.3-6.7 0-11.9-3.2-15.1-5.8v0.7c0 1.1-0.9 2-1.9 2-1.1 0-2-0.9-2-2v-5.4q0 0 0 0 0-0.1 0-0.1 0-0.1 0-0.1 0-0.1 0-0.1 0-0.1 0-0.1 0-0.1 0-0.1 0 0 0.1-0.1 0 0 0-0.1 0 0 0-0.1 0 0 0.1-0.1 0 0 0-0.1 0 0 0.1-0.1 0 0 0 0 0-0.1 0.1-0.1 0 0 0-0.1 0.1 0 0.1 0 0-0.1 0.1-0.1 0 0 0-0.1 0.1 0 0.1 0 0-0.1 0-0.1 0 0 0.1 0 0 0 0.1-0.1 0 0 0 0 0.1 0 0.1-0.1 0.1 0 0.1 0 0.1 0 0.1 0 0.1-0.1 0.1-0.1 0 0 0.1 0 0 0 0.1 0 0 0 0.1-0.1 0 0 0.1 0 0 0 0.1 0 0 0 0.1 0 0 0 0.1 0h5.4c1.1 0 2 0.9 2 2 0 1.1-0.9 2-2 2h-0.5c2.7 2.1 6.9 4.5 12.1 4.5 9.1 0 15.3-7.7 15.4-7.7 0.7-0.9 1.9-1 2.8-0.4 0.9 0.7 1 2 0.3 2.8z" />
						<path id="path17" class="s1"
							d="m26.4 15.2q0.6 0 1.3 0.1l-4.8 7.8h3l-0.9 5.2c-3-0.6-5.2-3.3-5.2-6.5 0-3.6 2.9-6.6 6.6-6.6z" />
						<path id="path19" class="s1"
							d="m25 28.3l4.8-7.8h-3l0.9-5.1c3 0.6 5.3 3.2 5.3 6.4 0 3.7-3 6.6-6.6 6.6q-0.7 0-1.4-0.1z" />
					</g>
				</g>
			</g>
		</g>
	</g>
</svg>