<svg id="Layer_1" data-name="Layer 1" xmlns="http://www.w3.org/2000/svg" viewBox="0 0 200 165"><defs><style>.cls-1{fill:#a453b9;}.cls-2{fill:#fff;}</style></defs><rect class="cls-1" width="200" height="165" rx="20"/><path class="cls-2" d="M164.27637,78.40723a7.48659,7.48659,0,0,1-5.87891-2.83692c-.335-.417-23.78809-29.209-58.39746-29.209-34.68555,0-58.166,28.91894-58.39941,29.21094A7.49987,7.49987,0,0,1,29.8457,66.25488c1.127-1.4248,28.08008-34.89355,70.1543-34.89355s69.02734,33.46875,70.1543,34.89355a7.5,7.5,0,0,1-5.87793,12.15235Z"/><path class="cls-2" d="M164.27148,78.40723H143.70117a7.5,7.5,0,0,1,0-15h13.07031V50.33691a7.5,7.5,0,1,1,15,0V70.90723A7.49944,7.49944,0,0,1,164.27148,78.40723Z"/><path class="cls-2" d="M100,133.63867c-42.07422,0-69.02734-33.46875-70.1543-34.89355a7.5,7.5,0,0,1,11.75684-9.31543c.335.417,23.78808,29.209,58.39746,29.209,34.68555,0,58.166-28.91894,58.39941-29.21094a7.49987,7.49987,0,0,1,11.75489,9.31739C169.02734,100.16992,142.07422,133.63867,100,133.63867Z"/><path class="cls-2" d="M35.72852,122.16309a7.49944,7.49944,0,0,1-7.5-7.5V94.09277a7.49944,7.49944,0,0,1,7.5-7.5H56.29883a7.5,7.5,0,1,1,0,15H43.22852v13.07032A7.49944,7.49944,0,0,1,35.72852,122.16309Z"/><circle class="cls-2" cx="99.65213" cy="82.50354" r="25"/><polygon class="cls-1" points="112.66 77.498 101.315 77.498 104.836 57.741 86.644 87.474 97.989 87.474 94.468 107.231 112.66 77.498"/></svg>