<?xml version="1.0" encoding="utf-8"?>
<!-- Generator: Adobe Illustrator 25.2.0, SVG Export Plug-In . SVG Version: 6.00 Build 0)  -->
<svg version="1.1" id="Layer_1" xmlns="http://www.w3.org/2000/svg" xmlns:xlink="http://www.w3.org/1999/xlink" x="0px" y="0px"
	 viewBox="0 0 401.0451355 165" style="enable-background:new 0 0 401.0451355 165;" xml:space="preserve">
<style type="text/css">
	.st0{fill:#A453B9;}
	.st1{fill:#FFFFFF;}
	.st2{fill:#344845;}
	.st3{fill:#D13306;}
	.st4{fill:#004D93;}
	.st5{fill:#0081BE;}
	.st6{fill:#1167F1;}
	.st7{fill:#FFC400;}
	.st8{fill:#FF7A3D;}
	.st9{fill:#00A580;}
	.st10{fill:#53C3D0;}
	.st11{fill:#671C4C;}
	.st12{fill:#00E3C2;}
	.st13{fill:#BC2A46;}
	.st14{fill:#FF192E;}
	.st15{fill:#00B056;}
</style>
<g>
	<g>
		<path class="st0" d="M180,165H20c-11,0-20-9-20-20V20C0,9,9,0,20,0h160c11,0,20,9,20,20v125C200,156,191,165,180,165z"/>
		<g>
			<path class="st1" d="M171.7714844,50.3369141c0-4.1425781-3.3574219-7.5-7.5-7.5s-7.5,3.3574219-7.5,7.5v2.7585449
				C144.6975098,43.2001953,125.0241699,31.3613281,100,31.3613281c-42.0742188,0-69.0273438,33.46875-70.1542969,34.8935547
				c-2.5654297,3.2441406-2.015625,7.9453125,1.2226562,10.5185547c3.2392578,2.5712891,7.9550781,2.03125,10.5322266-1.2011719
				C41.8339844,75.2802734,65.3144531,46.3613281,100,46.3613281c19.3798828,0,35.2580566,9.0273438,45.5415039,17.0458984
				h-1.840332c-4.1425781,0-7.5,3.3574219-7.5,7.5s3.3574219,7.5,7.5,7.5h20.5703125c0.0009766,0,0.001709,0,0.0024414,0
				c0.0009766,0,0.001709,0,0.0024414,0c0.0026855,0,0.0053711-0.0007324,0.0078125-0.0007324
				c0.3696289-0.0004883,0.7299805-0.036377,1.0852051-0.088623c0.072998-0.0107422,0.1452637-0.0202637,0.2182617-0.0332031
				c0.3569336-0.0632324,0.704834-0.1496582,1.0424805-0.2614746c0.0561523-0.0185547,0.1105957-0.0410156,0.1665039-0.0610352
				c0.7456055-0.2668457,1.435791-0.6467285,2.0510254-1.1218262c0.0244141-0.0187988,0.0517578-0.0310059,0.0761719-0.050293
				c0.0180664-0.0144043,0.0336914-0.0307617,0.0517578-0.0454102c0.1142578-0.092041,0.222168-0.1911621,0.3308105-0.2897949
				c0.078125-0.0708008,0.1591797-0.138916,0.2336426-0.2124023c0.0854492-0.0842285,0.1640625-0.1750488,0.2453613-0.2634277
				c0.0871582-0.0942383,0.1772461-0.1865234,0.2585449-0.2844238c0.0568848-0.0683594,0.1069336-0.1418457,0.161377-0.2121582
				c0.0949707-0.1230469,0.1918945-0.2446289,0.2783203-0.3723145c0.043457-0.0639648,0.0800781-0.1325684,0.121582-0.1977539
				c0.0871582-0.1379395,0.1760254-0.2749023,0.253418-0.4172363c0.0581055-0.1064453,0.1066895-0.21875,0.159668-0.328125
				c0.0510254-0.105957,0.1071777-0.2099609,0.1530762-0.3178711c0.0646973-0.1516113,0.1181641-0.3088379,0.1728516-0.465332
				c0.0246582-0.0705566,0.0546875-0.1394043,0.0771484-0.2106934c0.0471191-0.1491699,0.083252-0.3032227,0.1210938-0.456543
				c0.0209961-0.0837402,0.0466309-0.1660156,0.0644531-0.2502441c0.0268555-0.1264648,0.043457-0.2563477,0.0637207-0.3852539
				c0.0185547-0.1166992,0.0405273-0.2329102,0.0534668-0.3503418c0.0114746-0.1044922,0.0146484-0.2114258,0.0219727-0.3173828
				c0.0097656-0.145752,0.0205078-0.2910156,0.0219727-0.4372559c0-0.0231934,0.003418-0.0456543,0.003418-0.0688477V50.3369141z"/>
			<path class="st1" d="M168.9316406,88.2265625c-3.2392578-2.5703125-7.9541016-2.03125-10.5322266,1.2011719
				C158.1660156,89.7197266,134.6855469,118.6386719,100,118.6386719c-19.3798828,0-35.2580566-9.0273438-45.5415039-17.0458984
				h1.840332c4.1425781,0,7.5-3.3574219,7.5-7.5s-3.3574219-7.5-7.5-7.5H35.7285156
				c-0.0893555,0-0.1760254,0.0102539-0.2646484,0.0134277c-0.1347656,0.0046387-0.269043,0.0085449-0.4038086,0.0202637
				c-0.119873,0.0107422-0.2375488,0.0280762-0.3557129,0.0441895c-0.1242676,0.0170898-0.248291,0.0334473-0.3718262,0.0568848
				c-0.1237793,0.0231934-0.2451172,0.0527344-0.3666992,0.0820312c-0.1154785,0.027832-0.2307129,0.0554199-0.3452148,0.0888672
				c-0.1247559,0.0366211-0.246582,0.0788574-0.3686523,0.121582c-0.107666,0.0375977-0.215332,0.0749512-0.3217773,0.1176758
				c-0.1252441,0.050293-0.2468262,0.1066895-0.3684082,0.1635742c-0.0993652,0.0463867-0.1989746,0.0917969-0.2966309,0.1428223
				c-0.1259766,0.0656738-0.2478027,0.1376953-0.3696289,0.2104492c-0.0888672,0.0529785-0.1782227,0.104248-0.265625,0.161377
				c-0.126709,0.0830078-0.2480469,0.1726074-0.3693848,0.2629395c-0.060791,0.045166-0.1245117,0.0837402-0.1843262,0.1311035
				c-0.0180664,0.0144043-0.0336914,0.0307617-0.0517578,0.0454102c-0.1142578,0.092041-0.222168,0.1911621-0.3308105,0.2897949
				c-0.078125,0.0708008-0.1591797,0.138916-0.2336426,0.2124023c-0.0854492,0.0842285-0.1640625,0.1750488-0.2453613,0.2634277
				c-0.0871582,0.0942383-0.1772461,0.1865234-0.2585449,0.2844238c-0.0568848,0.0683594-0.1069336,0.1418457-0.161377,0.2121582
				c-0.0949707,0.1230469-0.1918945,0.2446289-0.2783203,0.3723145c-0.0429688,0.0632324-0.0793457,0.1311035-0.1203613,0.1958008
				c-0.0876465,0.1386719-0.177002,0.2763672-0.2548828,0.4194336c-0.0581055,0.1066895-0.1066895,0.2189941-0.159668,0.3286133
				c-0.0510254,0.1057129-0.1069336,0.2092285-0.152832,0.3168945c-0.0646973,0.1518555-0.1181641,0.3093262-0.1730957,0.4663086
				c-0.0246582,0.0703125-0.0544434,0.138916-0.0769043,0.2099609c-0.0471191,0.1494141-0.083252,0.3032227-0.1210938,0.456543
				c-0.0209961,0.0837402-0.0466309,0.1660156-0.0644531,0.2502441c-0.0268555,0.1264648-0.043457,0.2563477-0.0637207,0.3852539
				c-0.0185547,0.1166992-0.0405273,0.2329102-0.0534668,0.3503418c-0.0114746,0.1044922-0.0146484,0.2114258-0.0219727,0.3173828
				c-0.0097656,0.145752-0.0205078,0.2910156-0.0219727,0.4372559c0,0.0231934-0.003418,0.0456543-0.003418,0.0688477v20.5703125
				c0,4.1425781,3.3574219,7.5,7.5,7.5s7.5-3.3574219,7.5-7.5v-2.7585449
				C55.3024902,121.7998047,74.9758301,133.6386719,100,133.6386719c42.0742188,0,69.0273438-33.46875,70.1542969-34.8935547
				C172.7197266,95.5009766,172.1699219,90.7998047,168.9316406,88.2265625z"/>
			<path class="st1" d="M74.6520996,82.503418c0,12.0458984,8.5202637,22.0998535,19.8625488,24.4692383l3.4748535-19.4980469
				H86.6437988l18.0288086-29.4663086c-1.6218262-0.3305664-3.3007812-0.5048828-5.0205078-0.5048828
				C85.8449707,57.503418,74.6520996,68.6962891,74.6520996,82.503418z"/>
			<path class="st1" d="M99.6520996,107.503418c13.8071289,0,25-11.1928711,25-25
				c0-12.0478516-8.5231934-22.1030273-19.8681641-24.470459l-3.4689941,19.465332h11.345459L94.612793,106.9953613
				C96.2404785,107.3286133,97.9257812,107.503418,99.6520996,107.503418z"/>
		</g>
	</g>
	<g>
		<path class="st2" d="M230.2726593,81.7866211c0-18.2236328,9.6748047-25.4980469,23.2490234-25.4980469
			c13.3496246,0,23.0244293,7.2744141,23.0244293,25.4980469c0,20.25-9.9746094,26.9248047-23.0244293,26.9248047
			C239.947464,108.7114258,230.2726593,101.4360352,230.2726593,81.7866211z M263.7209167,81.7866211
			c0-12.5986328-4.9492188-16.6484375-10.3496246-16.6484375c-5.3994141,0-10.2744141,4.0498047-10.2744141,16.6484375
			c0,14.0244141,4.875,18.0751953,10.2744141,18.0751953C258.771698,99.8618164,263.7209167,95.8110352,263.7209167,81.7866211z"/>
		<path class="st2" d="M283.3722839,57.1879883h21.2236328c9.9746094,0,17.1748047,5.0253906,17.1748047,15.1494141
			c0,11.0244141-6.9755859,17.3994141-17.1748047,17.3994141h-8.6992188v18.0742188h-12.5244141V57.1879883z M295.896698,66.2631836
			v14.3994141h5.8496094c3.8994141,0,7.4248047-2.1005859,7.4248047-7.5751953c0-5.1748047-3.5253906-6.8242188-7.4248047-6.8242188
			H295.896698z"/>
		<path class="st2" d="M327.4718933,57.1879883h13.4238281l13.2744141,25.1240234c1.125,2.1748047,2.625,6,3.8251953,9h0.2998047
			c-0.1494141-2.8505859-0.5244141-6.9003906-0.5244141-9.8251953V57.1879883h10.2744141v50.6230469h-13.125L341.1213074,82.762207
			c-1.2753906-2.25-2.625-5.5498047-3.6748047-8.25h-0.3007812c0.2255859,2.8496094,0.6005859,6.2246094,0.6005859,9v24.2988281
			h-10.2744141V57.1879883z"/>
		<path class="st2" d="M374.9465027,57.1879883h26.0986328v8.8496094h-6.8242188v32.9238281h6.8242188v8.8496094h-26.0986328
			v-8.8496094h6.7490234V66.0375977h-6.7490234V57.1879883z"/>
	</g>
</g>
</svg>
