<svg id="Layer_1" data-name="Layer 1" xmlns="http://www.w3.org/2000/svg" viewBox="0 0 200 269.01284"><defs><style>.cls-1{fill:#a453b9;}.cls-2{fill:#fff;}.cls-3{fill:#344845;}</style></defs><rect class="cls-1" width="200" height="165" rx="20"/><path class="cls-2" d="M171.77148,50.33691a7.5,7.5,0,1,0-15,0v2.75855C144.69751,43.2002,125.02417,31.36133,100,31.36133c-42.07422,0-69.02734,33.46875-70.1543,34.89355a7.49987,7.49987,0,0,0,11.75489,9.31739C41.834,75.28027,65.31445,46.36133,100,46.36133c19.37988,0,35.25806,9.02734,45.5415,17.0459h-1.84033a7.5,7.5,0,0,0,0,15h20.5752l.00781-.00074a7.49793,7.49793,0,0,0,1.0852-.08862c.073-.01074.14527-.02026.21827-.0332a7.43989,7.43989,0,0,0,1.04248-.26148c.05615-.01855.11059-.041.1665-.061a7.47343,7.47343,0,0,0,2.051-1.12183c.02441-.0188.05175-.031.07617-.05029.01806-.01441.03369-.03076.05176-.04541.11425-.092.22216-.19116.33081-.2898.07812-.0708.15918-.13891.23364-.2124.08545-.08423.16406-.175.24536-.26343.08716-.09423.17725-.18652.25855-.28442.05688-.06836.10693-.14185.16137-.21216.095-.123.1919-.24463.27832-.37231.04346-.064.08008-.13257.12158-.19776.08716-.13794.176-.2749.25342-.41723.05811-.10645.10669-.21875.15967-.32813.051-.10595.10718-.21.15308-.31787.06469-.15161.11816-.30884.17285-.46533.02466-.07056.05469-.13941.07715-.21069.04712-.14917.08325-.30323.12109-.45655.021-.08374.04663-.166.06445-.25024.02686-.12647.04346-.25635.06372-.38526.01856-.11669.04053-.23291.05347-.35034.01148-.10449.01465-.21142.022-.31738.00977-.14575.02051-.291.022-.43726,0-.02319.00341-.04565.00341-.06884Z"/><path class="cls-2" d="M168.93164,88.22656a7.5086,7.5086,0,0,0-10.53223,1.20117c-.23339.292-23.71386,29.21094-58.39941,29.21094-19.37988,0-35.25806-9.02734-45.5415-17.0459h1.84033a7.5,7.5,0,1,0,0-15H35.72852c-.08936,0-.176.01026-.26465.01343-.13477.00464-.269.00855-.40381.02026-.11987.01075-.23755.02808-.35571.04419-.12427.01709-.2483.03345-.37183.05689-.12378.02319-.24512.05273-.3667.082-.11548.02783-.23071.05542-.34521.08887-.12476.03662-.24659.07885-.36866.12158-.10766.0376-.21533.075-.32177.11768-.12525.05029-.24683.10668-.36841.16357-.09937.04639-.199.0918-.29663.14282-.126.06568-.24781.1377-.36963.21045-.08887.053-.17822.10425-.26563.16138-.12671.083-.248.17261-.36938.26294-.06079.04516-.12451.08374-.18433.1311-.01806.01441-.03369.03076-.05176.04541-.11425.092-.22216.19116-.33081.2898-.07812.0708-.15918.13891-.23364.2124-.08545.08423-.16406.175-.24536.26343-.08716.09423-.17725.18652-.25855.28442-.05688.06836-.10693.14185-.16137.21216-.095.123-.1919.24463-.27832.37231-.043.06323-.07935.13111-.12036.1958-.08765.13868-.177.27637-.25489.41944-.0581.10669-.10669.219-.15966.32861-.051.10571-.10694.20923-.15284.31689-.06469.15186-.11816.30933-.17309.46631-.02466.07032-.05445.13892-.07691.21-.04712.14942-.08325.30323-.12109.45655-.021.08374-.04663.166-.06445.25024-.02686.12647-.04346.25635-.06372.38526-.01856.11669-.04053.23291-.05347.35034-.01148.10449-.01465.21142-.022.31738-.00977.14575-.02051.291-.022.43726,0,.02319-.00341.04565-.00341.06884v20.57032a7.5,7.5,0,1,0,15,0v-2.75855C55.30249,121.7998,74.97583,133.63867,100,133.63867c42.07422,0,69.02734-33.46875,70.1543-34.89355A7.49326,7.49326,0,0,0,168.93164,88.22656Z"/><path class="cls-2" d="M74.6521,82.50342a25.007,25.007,0,0,0,19.86255,24.46924L97.9895,87.47461H86.6438L104.67261,58.0083A25.01959,25.01959,0,0,0,74.6521,82.50342Z"/><path class="cls-2" d="M99.6521,107.50342A25.00157,25.00157,0,0,0,104.78394,58.033l-3.469,19.46533H112.6604L94.61279,106.99536A25.10377,25.10377,0,0,0,99.6521,107.50342Z"/><path class="cls-3" d="M14.61377,242.088c0-18.22364,9.6748-25.49805,23.249-25.49805,13.34961,0,23.02442,7.27441,23.02442,25.49805,0,20.25-9.97461,26.9248-23.02442,26.9248C24.28857,269.01284,14.61377,261.73745,14.61377,242.088Zm33.44824,0c0-12.59864-4.94922-16.64844-10.34961-16.64844-5.39941,0-10.27441,4.0498-10.27441,16.64844,0,14.02441,4.875,18.07519,10.27441,18.07519C43.11279,260.16323,48.062,256.11245,48.062,242.088Z"/><path class="cls-3" d="M67.71338,217.4894H88.937c9.97461,0,17.17481,5.02539,17.17481,15.14942,0,11.02441-6.97559,17.39941-17.17481,17.39941H80.23779v18.07422H67.71338Zm12.52441,9.0752V240.964H86.0874c3.89942,0,7.42481-2.10058,7.42481-7.57519,0-5.17481-3.52539-6.82422-7.42481-6.82422Z"/><path class="cls-3" d="M111.813,217.4894h13.42383l13.27441,25.124c1.125,2.1748,2.625,6,3.8252,9h.2998c-.14941-2.85059-.52441-6.90039-.52441-9.8252V217.4894h10.27441v50.62305h-13.125L125.4624,243.06362a69.87275,69.87275,0,0,1-3.6748-8.25h-.30078c.22558,2.84961.60058,6.22461.60058,9v24.29883H111.813Z"/><path class="cls-3" d="M159.2876,217.4894h26.09863V226.339H178.562v32.92383h6.82422v8.84961H159.2876v-8.84961h6.749V226.339h-6.749Z"/></svg>